<mxfile host="65bd71144e">
    <diagram id="YgYKqs37oB5x8q6iYFd7" name="第1頁">
        <mxGraphModel dx="2560" dy="2203" grid="1" gridSize="10" guides="1" tooltips="1" connect="1" arrows="1" fold="1" page="1" pageScale="1" pageWidth="827" pageHeight="1169" math="0" shadow="0">
            <root>
                <mxCell id="0"/>
                <mxCell id="1" parent="0"/>
                <mxCell id="71" value="" style="rounded=0;whiteSpace=wrap;html=1;" vertex="1" parent="1">
                    <mxGeometry x="-380" y="-270" width="580" height="280" as="geometry"/>
                </mxCell>
                <mxCell id="63" value="" style="rounded=0;whiteSpace=wrap;html=1;" vertex="1" parent="1">
                    <mxGeometry x="-380" y="40" width="580" height="550" as="geometry"/>
                </mxCell>
                <mxCell id="5" value="" style="edgeStyle=none;html=1;" edge="1" parent="1" source="3" target="4">
                    <mxGeometry relative="1" as="geometry"/>
                </mxCell>
                <mxCell id="3" value="Startup.S(Assembly):&amp;nbsp;&lt;div&gt;1. Set Vector table (Reset handler, Interrupt handler )&lt;/div&gt;&lt;div&gt;2. MPU Region&lt;/div&gt;&lt;div style=&quot;&quot;&gt;3. navigate main()&lt;/div&gt;" style="rounded=0;whiteSpace=wrap;html=1;align=left;" vertex="1" parent="1">
                    <mxGeometry x="390" y="140" width="300" height="60" as="geometry"/>
                </mxCell>
                <mxCell id="11" value="" style="edgeStyle=none;html=1;" edge="1" parent="1" source="4" target="10">
                    <mxGeometry relative="1" as="geometry"/>
                </mxCell>
                <mxCell id="4" value="init(): Init IPs" style="whiteSpace=wrap;html=1;align=left;rounded=0;" vertex="1" parent="1">
                    <mxGeometry x="480" y="290" width="120" height="60" as="geometry"/>
                </mxCell>
                <mxCell id="8" value="" style="endArrow=none;dashed=1;html=1;" edge="1" parent="1">
                    <mxGeometry width="50" height="50" relative="1" as="geometry">
                        <mxPoint x="395" y="240" as="sourcePoint"/>
                        <mxPoint x="685" y="240" as="targetPoint"/>
                    </mxGeometry>
                </mxCell>
                <mxCell id="9" value="jump to main()" style="text;html=1;align=center;verticalAlign=middle;whiteSpace=wrap;rounded=0;" vertex="1" parent="1">
                    <mxGeometry x="690" y="220" width="100" height="30" as="geometry"/>
                </mxCell>
                <mxCell id="10" value="Task(): execute FTL algorithm and service Host cmd" style="whiteSpace=wrap;html=1;align=left;rounded=0;" vertex="1" parent="1">
                    <mxGeometry x="480" y="430" width="120" height="60" as="geometry"/>
                </mxCell>
                <mxCell id="13" value="" style="rounded=0;whiteSpace=wrap;html=1;" vertex="1" parent="1">
                    <mxGeometry x="580" y="280" width="120" height="60" as="geometry"/>
                </mxCell>
                <mxCell id="14" value="" style="rounded=0;whiteSpace=wrap;html=1;" vertex="1" parent="1">
                    <mxGeometry x="580" y="280" width="120" height="60" as="geometry"/>
                </mxCell>
                <mxCell id="15" value="" style="rounded=0;whiteSpace=wrap;html=1;" vertex="1" parent="1">
                    <mxGeometry x="580" y="280" width="120" height="60" as="geometry"/>
                </mxCell>
                <mxCell id="16" value="" style="rounded=0;whiteSpace=wrap;html=1;" vertex="1" parent="1">
                    <mxGeometry x="580" y="280" width="120" height="60" as="geometry"/>
                </mxCell>
                <mxCell id="17" value="" style="rounded=0;whiteSpace=wrap;html=1;align=left;" vertex="1" parent="1">
                    <mxGeometry x="-280" y="85" width="340" height="225" as="geometry"/>
                </mxCell>
                <mxCell id="18" value="CPU1(ARM Cortex-R)&lt;div&gt;1. first execute ROM Code&lt;/div&gt;&lt;div&gt;2. then execute FW Code (slower than HW IPs, but it&#39;s has more flexible)&lt;/div&gt;" style="rounded=0;whiteSpace=wrap;html=1;align=left;" vertex="1" parent="1">
                    <mxGeometry x="-260" y="110" width="150" height="90" as="geometry"/>
                </mxCell>
                <mxCell id="19" value="CPU2:&lt;div&gt;1. execute FW2 Code to control Nand&lt;/div&gt;" style="rounded=0;whiteSpace=wrap;html=1;align=left;" vertex="1" parent="1">
                    <mxGeometry x="-200" y="285" width="165" height="50" as="geometry"/>
                </mxCell>
                <mxCell id="21" value="ROM Code:&lt;div&gt;1. Read only memory&lt;/div&gt;&lt;div&gt;2. Couldn&#39;t be modified after manufactured&lt;/div&gt;" style="rounded=0;whiteSpace=wrap;html=1;align=left;" vertex="1" parent="1">
                    <mxGeometry x="-90" y="210" width="140" height="70" as="geometry"/>
                </mxCell>
                <mxCell id="22" value="" style="rounded=0;whiteSpace=wrap;html=1;align=left;" vertex="1" parent="1">
                    <mxGeometry x="-280" y="420" width="340" height="130" as="geometry"/>
                </mxCell>
                <mxCell id="24" value="HW IPs:&amp;nbsp;&lt;div&gt;1. process simple and routine cmds&lt;/div&gt;&lt;div&gt;2. faster than FW Code&lt;/div&gt;&lt;div&gt;3. Analog circuit or Digital Circuit&lt;/div&gt;" style="rounded=0;whiteSpace=wrap;html=1;align=left;" vertex="1" parent="1">
                    <mxGeometry x="-90" y="110" width="140" height="90" as="geometry"/>
                </mxCell>
                <mxCell id="26" value="RAM&lt;div&gt;1. temp data&lt;/div&gt;&lt;div&gt;2. if important data would be flushed to Nand&lt;/div&gt;" style="rounded=0;whiteSpace=wrap;html=1;align=left;" vertex="1" parent="1">
                    <mxGeometry x="-260" y="210" width="150" height="70" as="geometry"/>
                </mxCell>
                <mxCell id="30" value="" style="shape=flexArrow;endArrow=classic;html=1;" edge="1" parent="1">
                    <mxGeometry width="50" height="50" relative="1" as="geometry">
                        <mxPoint x="-41" y="330" as="sourcePoint"/>
                        <mxPoint x="-41" y="410" as="targetPoint"/>
                    </mxGeometry>
                </mxCell>
                <mxCell id="31" value="" style="shape=flexArrow;endArrow=classic;html=1;" edge="1" parent="1">
                    <mxGeometry width="50" height="50" relative="1" as="geometry">
                        <mxPoint x="-190.5" y="410" as="sourcePoint"/>
                        <mxPoint x="-190" y="330" as="targetPoint"/>
                    </mxGeometry>
                </mxCell>
                <mxCell id="36" value="SSD Controller" style="text;html=1;align=center;verticalAlign=middle;whiteSpace=wrap;rounded=0;fillColor=#f5f5f5;fontColor=#333333;strokeColor=#666666;" vertex="1" parent="1">
                    <mxGeometry x="-330" y="70" width="100" height="30" as="geometry"/>
                </mxCell>
                <mxCell id="37" value="Nand Flash" style="text;html=1;align=center;verticalAlign=middle;whiteSpace=wrap;rounded=0;fillColor=#f5f5f5;fontColor=#333333;strokeColor=#666666;" vertex="1" parent="1">
                    <mxGeometry x="-330" y="400" width="100" height="30" as="geometry"/>
                </mxCell>
                <mxCell id="38" value="User Data&amp;nbsp;" style="rounded=0;whiteSpace=wrap;html=1;" vertex="1" parent="1">
                    <mxGeometry x="-260" y="455" width="120" height="60" as="geometry"/>
                </mxCell>
                <mxCell id="39" value="System Data&lt;div&gt;(including FW1 for CPU1 and FW2 for CPU2)&amp;nbsp;&lt;/div&gt;" style="rounded=0;whiteSpace=wrap;html=1;" vertex="1" parent="1">
                    <mxGeometry x="-90" y="450" width="135" height="65" as="geometry"/>
                </mxCell>
                <mxCell id="40" value="" style="rounded=0;whiteSpace=wrap;html=1;" vertex="1" parent="1">
                    <mxGeometry x="-280" y="-70" width="340" height="50" as="geometry"/>
                </mxCell>
                <mxCell id="42" value="SSD Driver" style="text;html=1;align=center;verticalAlign=middle;whiteSpace=wrap;rounded=0;fillColor=#f5f5f5;fontColor=#333333;strokeColor=#666666;" vertex="1" parent="1">
                    <mxGeometry x="-160" y="-90" width="100" height="30" as="geometry"/>
                </mxCell>
                <mxCell id="45" value="PCIE Link (Host End)" style="rounded=0;whiteSpace=wrap;html=1;" vertex="1" parent="1">
                    <mxGeometry x="-200" y="-40" width="190" height="40" as="geometry"/>
                </mxCell>
                <mxCell id="46" value="PCIE Link (Contoller End)" style="rounded=0;whiteSpace=wrap;html=1;" vertex="1" parent="1">
                    <mxGeometry x="-200" y="60" width="190" height="40" as="geometry"/>
                </mxCell>
                <mxCell id="49" value="" style="endArrow=classic;startArrow=classic;html=1;" edge="1" parent="1">
                    <mxGeometry width="50" height="50" relative="1" as="geometry">
                        <mxPoint x="-150" y="70" as="sourcePoint"/>
                        <mxPoint x="-150" y="-10" as="targetPoint"/>
                    </mxGeometry>
                </mxCell>
                <mxCell id="50" value="" style="endArrow=classic;startArrow=classic;html=1;" edge="1" parent="1">
                    <mxGeometry width="50" height="50" relative="1" as="geometry">
                        <mxPoint x="-120.5" y="70" as="sourcePoint"/>
                        <mxPoint x="-120.5" y="-10" as="targetPoint"/>
                    </mxGeometry>
                </mxCell>
                <mxCell id="51" value="" style="endArrow=classic;startArrow=classic;html=1;" edge="1" parent="1">
                    <mxGeometry width="50" height="50" relative="1" as="geometry">
                        <mxPoint x="-90" y="70" as="sourcePoint"/>
                        <mxPoint x="-90" y="-10" as="targetPoint"/>
                    </mxGeometry>
                </mxCell>
                <mxCell id="52" value="" style="endArrow=classic;startArrow=classic;html=1;" edge="1" parent="1">
                    <mxGeometry width="50" height="50" relative="1" as="geometry">
                        <mxPoint x="-60" y="70" as="sourcePoint"/>
                        <mxPoint x="-60" y="-10" as="targetPoint"/>
                    </mxGeometry>
                </mxCell>
                <mxCell id="57" value="&lt;ol&gt;&lt;li&gt;CPU2 send cmd following ONFI spec &lt;br&gt;(such as read/write)&lt;/li&gt;&lt;/ol&gt;" style="text;html=1;align=left;verticalAlign=middle;whiteSpace=wrap;rounded=0;" vertex="1" parent="1">
                    <mxGeometry x="-60" y="350" width="300" height="40" as="geometry"/>
                </mxCell>
                <mxCell id="58" value="&lt;ol&gt;&lt;li&gt;retrieve data stored in Nand&lt;/li&gt;&lt;/ol&gt;" style="text;html=1;align=left;verticalAlign=middle;whiteSpace=wrap;rounded=0;" vertex="1" parent="1">
                    <mxGeometry x="-390" y="350" width="300" height="40" as="geometry"/>
                </mxCell>
                <mxCell id="64" value="SSD" style="text;html=1;align=center;verticalAlign=middle;whiteSpace=wrap;rounded=0;fillColor=#f5f5f5;fontColor=#333333;strokeColor=#666666;" vertex="1" parent="1">
                    <mxGeometry x="-330" y="30" width="100" height="30" as="geometry"/>
                </mxCell>
                <mxCell id="65" value="" style="rounded=0;whiteSpace=wrap;html=1;" vertex="1" parent="1">
                    <mxGeometry x="-280" y="-220" width="340" height="50" as="geometry"/>
                </mxCell>
                <mxCell id="66" value="Operating System" style="text;html=1;align=center;verticalAlign=middle;whiteSpace=wrap;rounded=0;fillColor=#f5f5f5;fontColor=#333333;strokeColor=#666666;" vertex="1" parent="1">
                    <mxGeometry x="-160" y="-240" width="100" height="30" as="geometry"/>
                </mxCell>
                <mxCell id="67" value="File System(e.g. APFS, NTFS)" style="rounded=0;whiteSpace=wrap;html=1;" vertex="1" parent="1">
                    <mxGeometry x="-192.5" y="-200" width="190" height="40" as="geometry"/>
                </mxCell>
                <mxCell id="72" value="Personal Computer" style="text;html=1;align=center;verticalAlign=middle;whiteSpace=wrap;rounded=0;fillColor=#f5f5f5;fontColor=#333333;strokeColor=#666666;" vertex="1" parent="1">
                    <mxGeometry x="-340" y="-290" width="120" height="30" as="geometry"/>
                </mxCell>
                <mxCell id="73" value="" style="shape=flexArrow;endArrow=classic;html=1;" edge="1" parent="1">
                    <mxGeometry width="50" height="50" relative="1" as="geometry">
                        <mxPoint x="-80" y="-170" as="sourcePoint"/>
                        <mxPoint x="-80" y="-90" as="targetPoint"/>
                    </mxGeometry>
                </mxCell>
                <mxCell id="74" value="" style="shape=flexArrow;endArrow=classic;html=1;" edge="1" parent="1">
                    <mxGeometry width="50" height="50" relative="1" as="geometry">
                        <mxPoint x="-140" y="-90" as="sourcePoint"/>
                        <mxPoint x="-140" y="-170" as="targetPoint"/>
                    </mxGeometry>
                </mxCell>
                <mxCell id="75" value="Host Memory:&lt;div&gt;1. SSD borrow the space to store data tempararily&lt;/div&gt;" style="rounded=0;whiteSpace=wrap;html=1;align=left;" vertex="1" parent="1">
                    <mxGeometry x="-360" y="-150" width="160" height="60" as="geometry"/>
                </mxCell>
                <mxCell id="76" value="" style="endArrow=none;dashed=1;html=1;" edge="1" parent="1">
                    <mxGeometry width="50" height="50" relative="1" as="geometry">
                        <mxPoint x="-483" y="20" as="sourcePoint"/>
                        <mxPoint x="350" y="20" as="targetPoint"/>
                    </mxGeometry>
                </mxCell>
                <mxCell id="79" value="SSD needs to physically insert into M.2 or PCIe Slot" style="text;html=1;align=center;verticalAlign=middle;whiteSpace=wrap;rounded=0;" vertex="1" parent="1">
                    <mxGeometry x="80" y="20" width="310" height="30" as="geometry"/>
                </mxCell>
            </root>
        </mxGraphModel>
    </diagram>
</mxfile>